<?xml version="1.0" encoding="utf-8"?>
<!-- Generator: Adobe Illustrator 24.0.1, SVG Export Plug-In . SVG Version: 6.00 Build 0)  -->
<svg version="1.0" id="Layer_1" xmlns="http://www.w3.org/2000/svg" xmlns:xlink="http://www.w3.org/1999/xlink" x="0px" y="0px"
	 viewBox="0 0 348.5 348.5" style="enable-background:new 0 0 348.5 348.5;" xml:space="preserve">
<style type="text/css">
	.st0{fill:#DDDDDD;}
</style>
<polygon class="st0" points="84.1,-0.9 96.1,16 72.1,16 "/>
<polygon class="st0" points="70.5,0.2 85,15 61.2,18.7 "/>
<polygon class="st0" points="57.2,3.4 73.8,15.7 50.9,23.1 "/>
<polygon class="st0" points="44.5,8.6 62.9,18.2 41.5,29.1 "/>
<polygon class="st0" points="32.8,15.8 52.5,22.3 33,36.5 "/>
<polygon class="st0" points="22.4,24.7 42.9,28.1 25.9,45.1 "/>
<polygon class="st0" points="13.6,35.1 34.3,35.3 20.1,54.7 "/>
<polygon class="st0" points="6.4,46.7 26.9,43.7 16,65.1 "/>
<polygon class="st0" points="1.2,59.4 20.9,53.2 13.5,76 "/>
<polygon class="st0" points="-2,72.7 16.5,63.5 12.7,87.2 "/>
<polygon class="st0" points="-3.1,86.3 13.7,74.3 13.7,98.4 "/>
<polygon class="st0" points="-2,100 12.7,85.5 16.5,109.2 "/>
<polygon class="st0" points="1.2,113.3 13.5,96.6 20.9,119.5 "/>
<polygon class="st0" points="6.4,125.9 16,107.6 26.9,129 "/>
<polygon class="st0" points="13.6,137.6 20.1,118 34.3,137.4 "/>
<polygon class="st0" points="22.4,148 25.9,127.6 42.9,144.6 "/>
<polygon class="st0" points="32.8,156.9 33,136.2 52.5,150.3 "/>
<polygon class="st0" points="44.5,164 41.5,143.6 62.9,154.5 "/>
<polygon class="st0" points="57.2,169.3 50.9,149.5 73.8,157 "/>
<polygon class="st0" points="70.5,172.5 61.2,153.9 85,157.7 "/>
<polygon class="st0" points="84.1,173.5 72.1,156.7 96.1,156.7 "/>
<polygon class="st0" points="97.7,172.5 83.2,157.7 107,153.9 "/>
<polygon class="st0" points="111.1,169.3 94.4,157 117.3,149.5 "/>
<polygon class="st0" points="123.7,164 105.3,154.5 126.8,143.6 "/>
<polygon class="st0" points="135.4,156.9 115.7,150.3 135.2,136.2 "/>
<polygon class="st0" points="145.8,148 125.4,144.6 142.4,127.6 "/>
<polygon class="st0" points="154.7,137.6 134,137.4 148.1,118 "/>
<polygon class="st0" points="161.8,125.9 141.3,129 152.3,107.6 "/>
<polygon class="st0" points="167,113.3 147.3,119.5 154.7,96.6 "/>
<polygon class="st0" points="170.2,100 151.7,109.2 155.5,85.5 "/>
<polygon class="st0" points="171.3,86.3 154.5,98.4 154.5,74.3 "/>
<polygon class="st0" points="170.2,72.7 155.5,87.2 151.7,63.5 "/>
<polygon class="st0" points="167,59.4 154.7,76 147.3,53.2 "/>
<polygon class="st0" points="161.8,46.7 152.3,65.1 141.3,43.7 "/>
<polygon class="st0" points="154.7,35.1 148.1,54.7 134,35.3 "/>
<polygon class="st0" points="145.8,24.7 142.4,45.1 125.4,28.1 "/>
<polygon class="st0" points="135.4,15.8 135.2,36.5 115.7,22.3 "/>
<polygon class="st0" points="123.7,8.6 126.8,29.1 105.3,18.2 "/>
<polygon class="st0" points="111.1,3.4 117.3,23.1 94.4,15.7 "/>
<polygon class="st0" points="97.7,0.2 107,18.7 83.2,15 "/>
<circle class="st0" cx="84.1" cy="86.3" r="73"/>
</svg>
