<?xml version="1.0" encoding="utf-8"?>
<!-- Generator: Adobe Illustrator 24.0.1, SVG Export Plug-In . SVG Version: 6.00 Build 0)  -->
<svg version="1.0" id="Layer_1" xmlns="http://www.w3.org/2000/svg" xmlns:xlink="http://www.w3.org/1999/xlink" x="0px" y="0px"
	 viewBox="0 0 40.1 40.1" style="enable-background:new 0 0 40.1 40.1;" xml:space="preserve">
<style type="text/css">
	.st0{fill:#DDDDDD;}
</style>
<path id="gearpoly0" class="st0" d="M32.2,20.1c3.2,0.3,5.9-1.5,7.9-5.6l-0.1-0.2c-1.9-1.1-6.5-3.4-9.7-0.6l-1.7-2.2
	c2.5-2.1,3.1-5.2,1.7-9.6l-0.2-0.1c-2.1,0.6-7,2.2-7.3,6.4l-2.8-0.3C20.4,4.7,18.5,2,14.5,0l-0.2,0.1c-1.1,1.9-3.4,6.5-0.6,9.7
	l-2.2,1.7C9.4,9,6.2,8.4,1.9,9.8L1.8,10c0.6,2.1,2.2,7,6.4,7.3l-0.3,2.8C4.7,19.8,2,21.6,0,25.6l0.1,0.2C2,27,6.5,29.2,9.7,26.4
	l1.7,2.2c-2.5,2.1-3.1,5.2-1.7,9.6l0.2,0.1c2.1-0.6,7-2.2,7.3-6.4l2.8,0.3c-0.3,3.2,1.5,5.9,5.6,7.9l0.2-0.1
	c1.1-1.9,3.4-6.5,0.6-9.7l2.2-1.7c2.1,2.5,5.2,3.1,9.6,1.7l0.1-0.2c-0.6-2.1-2.2-7-6.4-7.3L32.2,20.1z"/>
</svg>
