<?xml version="1.0" encoding="utf-8"?>
<!-- Generator: Adobe Illustrator 24.0.1, SVG Export Plug-In . SVG Version: 6.00 Build 0)  -->
<svg version="1.0" id="Layer_1" xmlns="http://www.w3.org/2000/svg" xmlns:xlink="http://www.w3.org/1999/xlink" x="0px" y="0px"
	 viewBox="0 0 39.685 31.181" style="enable-background:new 0 0 39.685 31.181;" xml:space="preserve">
<g>
	<path d="M14.889,29.744v0.649v0.649h5.138h5.138v-0.649v-0.649c0-2.772,0.53-5.492,1.536-8.023
		c1.006-2.531,2.488-4.872,4.392-6.887l3.299-3.493l3.299-3.493c0.898-0.951,1.279-2.212,1.159-3.41
		c-0.12-1.197-0.741-2.331-1.849-3.027c-0.168-0.111-0.698-0.4-1.38-0.662c-0.217-0.09-0.45-0.083-0.651,0s-0.37,0.243-0.46,0.46
		c-0.09,0.217-0.083,0.45,0,0.651s0.243,0.37,0.46,0.46c0.188,0.078,0.386,0.08,0.563,0.023s0.337-0.174,0.448-0.335
		c0.677,0.35,1.172,0.932,1.424,1.605s0.26,1.438-0.037,2.155c-0.297,0.717-0.844,1.252-1.498,1.55s-1.416,0.359-2.142,0.128
		c0.035-0.193,0.006-0.388-0.08-0.554s-0.226-0.304-0.415-0.382c-0.217-0.09-0.45-0.083-0.651,0s-0.37,0.243-0.46,0.46
		c-0.09,0.217-0.083,0.45,0,0.651s-1.035,7.735-12.099,7.735S7.846,7.823,7.93,7.622c0.083-0.201,0.09-0.434,0-0.651
		c-0.09-0.217-0.259-0.377-0.46-0.46s-0.434-0.09-0.651,0C6.63,6.589,6.489,6.726,6.404,6.893s-0.115,0.361-0.08,0.554
		c-0.726,0.231-1.488,0.17-2.142-0.128s-1.201-0.833-1.498-1.55C2.387,5.052,2.396,4.286,2.647,3.613s0.747-1.255,1.424-1.605
		c0.112,0.161,0.27,0.278,0.448,0.336S4.895,2.398,5.083,2.32C5.3,2.231,5.46,2.061,5.543,1.86s0.09-0.434,0-0.651
		c-0.09-0.217-0.259-0.377-0.46-0.46s-0.434-0.09-0.651,0c-0.4,0.188-0.549,0.165-1.38,0.662C1.945,2.107,1.323,3.24,1.202,4.436
		s0.26,2.457,1.158,3.408c0.806,0.853,1.855,1.964,3.004,3.181s2.397,2.538,3.6,3.811c1.904,2.015,3.385,4.356,4.391,6.887
		S14.889,26.972,14.889,29.744z"/>
</g>
</svg>
