<svg id="Layer_1" data-name="Layer 1" xmlns="http://www.w3.org/2000/svg" width="2.24in" height="1.05in" viewBox="0 0 161.55 75.43"><title>bubs</title><path d="M380.12,437.06c-1.79-.7-2.94-5.6-2.71-8.88s1.88-5.34,4-4.76c1.92.52,3.26,2.24,3,5.66C384,433,382.09,437.83,380.12,437.06Zm7.8-38.48c-1.92,8.77-1.24,16.77-3.53,23.42-.38,1.11-1.61,2.18-2.49,1.84a7.84,7.84,0,0,1-3.13-4.69c.5-15,.64-29.89.47-44.86a9.83,9.83,0,0,1,3.19-4c1.47-1.06,2.58-.75,4.2-.57,2.48.28,4.71.14,6.3,3.38,1.39,2.83,1.37,7.85,1.32,8.09S389.63,390.79,387.93,398.58Z" transform="translate(-232.71 -361.71)"/><path d="M380.39,415.27c-.29-7.27-5-10.51-10.73-14.55L360,394c-2.88-2-4.9-4.39-4.68-8,.29-5,6.12-8.93,10.87-7.2a26.72,26.72,0,0,0,.94,5.76,27.93,27.93,0,0,0,2.38,6.34,3.66,3.66,0,0,0,4,.72c.94-.29,1.22-1.08,2-1.58a11.26,11.26,0,0,1,2.74-1.44,33.58,33.58,0,0,1-2.59-6.77,20,20,0,0,1-.72-6.55l-2.16-2.3c-.94.07-1.58.14-2.52.14-2.09,0-3.24-.94-5.26-1.08a17.48,17.48,0,0,0-13.83,5.07c-.43-4.12-2.4-4.25-3-6.28-.56-2.29-2.71-7.32-7.19-8.44-6.11-1.44-13.83-.45-20,.91l7.15,7.86,6.35-1c3.9-.58,9.72.83,9.91,3.13,1.38,11.77-17.7,13.15-18,12.67a23.73,23.73,0,0,1,1.54-7,19.33,19.33,0,0,1,2.48-4.33l-2.79-3.39h0l-7.13-7.84a65.45,65.45,0,0,0-10.21,3,6.23,6.23,0,0,1,.63,2.74c.14,1.78-1.9,3-.92,4.59a2.7,2.7,0,0,0,2,1.44,4.85,4.85,0,0,1,2.35-1.8c1.1-.47,1.92-.11,3.1-.21s1.79-.21,2.84-.4l-8.2,40.94a15.66,15.66,0,0,1-1.5-3.89l-3.87-22.61c0-.07-.16-4.11-.11-6.71,0-1.55.5-2.56.14-4.1l-.88-3.71a2.23,2.23,0,0,0-2.11-1.72,13.19,13.19,0,0,0-4.68,1.48c-.22-.61-2.44-1.86-3.57-1-.88.65-.76,1.81-.65,2.89,0,.37,2.63,14.25,3.57,22.91,1.08,9.58,3.67,22.07-4.21,23.19-5.67.75-7.25-13.75-8.41-21.17-1.27-8.8-2.06-16.83-2.11-17a4.35,4.35,0,0,0,.39-3.05c-.75-2.86-1.89-3.92-4.22-4.4L274.77,376c-1.07-4.38-3.13-4.12-4-6.08-.93-2.16-3.87-6.78-8.48-7.15-6-.4-13,1.62-18.74,3.84l7.49,6.92,6.12-2.07c3.75-1.21,9.72-.76,10.29,1.47,3.28,11.39-15.31,15.87-15.67,15.44a23.73,23.73,0,0,1,.38-7.13,19.33,19.33,0,0,1,1.74-4.68l-3.3-2.89h0l-7.47-6.91a68,68,0,0,0-10.42,5,6.23,6.23,0,0,1,1.07,2.6c.43,1.73-1.38,3.31-.16,4.68a2.7,2.7,0,0,0,2.23,1.09,4.85,4.85,0,0,1,2-2.15c1-.65,1.87-.43,3-.71s1.73-.5,2.74-.86l-1.41,42.26a6.14,6.14,0,0,0,.35,2.59c.14.22,2.59,2.31,7.27,1.46,1.21-.21,1.79-1.55,2.16-2.91l-1-7.29,0,0,0-15c.58-.43,14.92-4.42,16,4.44.71,5.11-4.07,12.59-10.33,12.43a8.8,8.8,0,0,1-5.23-1.51l1,7.15a14.39,14.39,0,0,0,6.73,1.5c9.5.1,17.66-7.37,16.9-17.74-.69-10.87-9.69-12.41-10.26-12.56a16.2,16.2,0,0,0,6.06-3.5,4.16,4.16,0,0,0,.16.55,6.14,6.14,0,0,0,2.6,3.16c-.06.38,2.73,14.37,4.1,23.6,2.75,18.51,16.48,16.82,16.59,16.65.51-.64.74-.92,1.19-1.54a16.5,16.5,0,0,0,5.07-5.79c1.48-2.5,1.87-6.81,1.94-7.12,0,.23,4,8.91,9.82,7.74,2.26-.47,5.47-4.45,6.28-5.54a4,4,0,0,0,1.85-2.11l.36-7.59-.07-.07,2.5-14.84c.64-.33,15.44-1.93,15,7-.14,5.16-6.07,11.76-12.22,10.57a8.79,8.79,0,0,1-4.88-2.32l-.34,7.11a14.46,14.46,0,0,0,6.52,2.66c9.36,1.65,18.63-4.38,19.57-14.74,1.1-10.84-7.53-13.83-8.07-14.07a16.2,16.2,0,0,0,6.64-2.53c0,6.47,3.35,10.83,8.85,14.5l9.65,6.34c3.74,2.45,8.06,6.41,6.19,9.79-1.73,3-6.77,3.1-8.93,3-8.5-.65-13-9.22-13.11-9.65a2.82,2.82,0,0,0-1.94.94c-.58.72.72,1.87,0,2.52a1.76,1.76,0,0,1-1.66.36,7.72,7.72,0,0,0,0,2.88c2.74,7.2,8.57,11.59,16.35,11.67C374.12,430.82,380.6,419.45,380.39,415.27Z" transform="translate(-232.71 -361.71)"/></svg>