<svg id="Layer_1" data-name="Layer 1" xmlns="http://www.w3.org/2000/svg" width="1.36in" height="1.02in" viewBox="0 0 98.13 73.32"><title>day</title><path d="M353.54,404.57c0,4.61.58,7.42.58,12-.07,9.36-3.1,9.65-7.49,13.83a6,6,0,0,1-3.82,2.38c-1.66.36-8.86-4-8.71-8,.07-1.8,2.23-4.25,3-3.82a2.44,2.44,0,0,1,.86,3,4.55,4.55,0,0,0,4.9,2.66c3-.43,3.31-4,3.31-6.91v-8c-.22.5-4.61,5-8.21,4.75-5.11-.36-8.07-5.18-7.49-11.09.5-4.9,1.22-7.78,1.3-12.75a66.88,66.88,0,0,0-.14-8.5c.14-.07,3.17-.43,4.75-.72s2.74,1.51,4.1,2.88c.79.72,2,1.08,1.87,2.23a6.67,6.67,0,0,1-1.66,1.8c-.07.22-1.22,7-1.66,11.38-.22,3.17-.79,8,2.38,7.85,2.52-.14,3.74-2.74,3.82-5.26l.94-22.18a4.33,4.33,0,0,1,1.94-.5,3.28,3.28,0,0,1,2,.36c.29-.79.65-1.66,1.51-1.66,1.15,0,4.61,3.1,3.74,4.9C353.9,388.23,353.61,397,353.54,404.57Z" transform="translate(-257.34 -359.42)"/><path d="M305.64,409.2c-.15-.46-.61-1.31-3.06-.33-4.73,3.21-10.23,5.9-13,5.11-3.2-.84-4.6-2.18-3.79-5l-13.48,9.2a25.13,25.13,0,0,0,8.56,2.06c6.87.26,16.19-2.1,21.69-5.44,1.68-.79,3.21-1.7,3.21-2.36A10.64,10.64,0,0,0,305.64,409.2Z" transform="translate(-257.34 -359.42)"/><path d="M283,359.43c-10.58.07-25.49,9.22-25.63,9.43a5.1,5.1,0,0,0,1.08,2.16,5.56,5.56,0,0,0,1.15,1.08,4.16,4.16,0,0,0-.22,3.46,4.1,4.1,0,0,0,2.59,2.74,7.51,7.51,0,0,1,2.88-3.6,8,8,0,0,1,4.54-1.87v.08l8.37-3.15,0,0c.94-.79,6.48-3.17,11.45-.86,2.74,1.22,4.32,4.9,4.54,8.71l.58,8.35c.79,13-8.64,25.63-13.68,25.78-1.37,0-2.09-.79-3.24-1.44l1.3-34.35,1.8-3.1-2.38-2.69-8.72,3.28-1.06,41a3.83,3.83,0,0,0,2.88,3.53c1.73.58,2.88,1.3,4.68,1.08l1.87-2.52c1.8.72,3,1.44,4.9,1.44,14.54.22,21.24-17.57,21.82-32.91C304.87,372,296.59,359.28,283,359.43Z" transform="translate(-257.34 -359.42)"/><path d="M335.75,403.42c-.07-.5-.29-1.44-1.44-.36-2.23,3.53-4.83,6.48-6.12,5.62-1.66-1-2.3-2.66-1.66-6.48l1.51-8.79c.29-1.58,1.22-4.46.94-6.12-.36-2.22-6.63-2.45-8.32-3l-1,4.53h0l-1.3,12.53c-.5,4-2.23,9.94-4.61,9.22-2.67-.79-1.15-7.85-.14-12.67,2.55-12.86,4.42-10.24,5.61-9.31l1.07-4.68c-1.19-1.23-2.19-2.36-3.95-2.36-8.21-.14-12.38,10.73-13.11,23.62-.36,6.62,1.37,13.18,7.49,13.9,3.89.5,7.06-6,8.14-7.06,1.15,1.22,2.88,3.24,5.26,3.53,3.24.29,7.63-2.3,10.23-6a4.94,4.94,0,0,0,1.51-2.59A26.87,26.87,0,0,0,335.75,403.42Z" transform="translate(-257.34 -359.42)"/></svg>