<svg id="Layer_1" data-name="Layer 1" xmlns="http://www.w3.org/2000/svg" width="1.57in" height="0.83in" viewBox="0 0 112.94 59.78"><title>first</title><path d="M362.35,409.77c-1.22,1.66-4.25,6.91-6.7,6.91-2.88,0-3.53-4-3.24-6.55.36-4.39.86-10.95,1.08-11.23h3.6a1.86,1.86,0,0,0,2.52-.72c.22-.43-.79-3.24-1.44-3.24a4.15,4.15,0,0,0,1.08-2.59,2.84,2.84,0,0,0-1.44-2.52h-4a48.22,48.22,0,0,1,2.16-10c.65-1.73,1.94-4.18,1.94-4.39s-4.25-3.53-6.34-3.38c-1.87.07-5.18,4-5.26,4.32a26.73,26.73,0,0,1,.36,6.34,24.19,24.19,0,0,1-1.08,6.77h-2.16c.22.79-.65,1.94.36,4.54.36.94-.94,1.51-.72,2.52a3,3,0,0,0,2,2.38,132,132,0,0,0-2,13.61,9.77,9.77,0,0,0,.32,3.55c-1.12,1.13-2.13,1.69-2.8,1.25a3.77,3.77,0,0,1-1.84-3.11,22.28,22.28,0,0,0,.36-5.51c-.36-6.7-4.75-10-5.69-16.35a36.6,36.6,0,0,1-.22-5,11,11,0,0,0-4.54-1.08c-1.94.14-2.81,1.44-4.68,2a23.09,23.09,0,0,1-2.38.5,61.15,61.15,0,0,1-4.82,25.06,4.66,4.66,0,0,0-.24.9,5.37,5.37,0,0,1-3.21,1.48c-4.18.22-2-10.87-.58-18.36.43-2.16,3.24-3.74,1.8-5.47-.86-1.08-2.38-.22-3.6-1.08-.5-.36-.72-.86-1.22-1.22a4.26,4.26,0,0,0-2.38-.94c0,.22-2,3.46-4,3.46s-1.94-.65-2.52-1.66l1.44-4a3.78,3.78,0,0,0-4-2.38c-1.51.14-3,.72-3.31,2.23-.79,3.24-.79,9.94-.14,11.23.43.79.43,1.37.86,2.16-.07.29-.29,2.52-.58,4.39a36.32,36.32,0,0,1-1.22,5.18c-.81,1-1,1.19-1.12,1.82-1.15,1.72-2.86,4-4.21,4-3,.14-2.3-6.12-1.8-9.94s1.37-9.36,1.44-9.65a3.56,3.56,0,0,0,1.66-2.16c.5-1.66-5-4.32-5.26-4.18-.14-.29-5.47.65-6.34,1.44a.9.9,0,0,0-.34.69,3.06,3.06,0,0,0-1.82-.4,42.56,42.56,0,0,1-11.23.72c.43-3.1.79-5,1.08-8.14.29-2.52.5-4,.65-6.55a77.09,77.09,0,0,1,7.63-1.08,16.12,16.12,0,0,1,4.1.58c1.37.22,3.24-1.66,3.17-2.23s-1.15-1.44-1.15-2.52c0-.79.94-1.22.79-2.09-.07-.58-.79-.79-1-1.37s.22-1.08.14-1.8c-.07-.36-1.94-.79-3.24-.72l-4,.14c-5.33.22-8.5,1.08-13.83.94a68.79,68.79,0,0,1-8.57-.72c0,2.09-.5,3.46.22,5.4.5,1.58.29,3,.5,4.75h4.9c-.07,7.49-.07,11.81-.29,19.23-.29,9.43-.5,15-1.08,24.41.07.36,3.46,5,7.13,4.75,2-.22,4.46-2.59,4.54-2.74a8.09,8.09,0,0,1-1.51-5c-.14-5.76-.36-13.61-.07-15,3.31-.22,5.33-.43,8.64-.72a32,32,0,0,1,3.88.11c-.73,5.58-.95,10.55-.07,14.86.36,1.8,3.82,5.83,7,6,6,.36,8.86-5.9,9.5-6.48l0,0A20.63,20.63,0,0,0,299,408a21.73,21.73,0,0,0,1.51-7.13,2.94,2.94,0,0,1,1.66-1.3,2.82,2.82,0,0,1,2.16.22,83.17,83.17,0,0,0-2,12c-.29,6.12,1.22,12.17,7.63,12.53,3.56.16,7.42-4,9.4-6.46.2,2.71,1.43,7.43,7.37,8,1.08.14,1.66-1.37,2.74-2l3.28-1.75-2-5.08a2.87,2.87,0,0,1-2.54,1.79c-2,.07-3-2.16-3.38-4.18-.36-1.66,2.3-2.52.72-4.39-.65-.72-1.94-.5-2.74,0a46.79,46.79,0,0,1,1.66-5.4,38.77,38.77,0,0,1,1.94-4.75l3.31,8.5c.14.36,1.87,3.82,1.66,6a9.33,9.33,0,0,1-.38,1.75l2.49,6.22a6.2,6.2,0,0,0,3.11,1.44c2.68.24,6.13-1.49,8.72-4.17,1.57,2.3,3.74,4,5.71,4.33,3.67.65,6.77-2.38,8.79-4.54a22,22,0,0,0,2.59-3.53,4.51,4.51,0,0,0,1-2.45c-.07-1.37.14-2.23.14-3.53C363.64,408.54,362.78,409.26,362.35,409.77Z" transform="translate(-250.58 -366.2)"/></svg>