<svg id="Layer_1" data-name="Layer 1" xmlns="http://www.w3.org/2000/svg" width="2.07in" height="1.04in" viewBox="0 0 149.32 74.68"><title>happy</title><path d="M383.67,218.29c-.86,0-1.22.86-1.51,1.66a3.28,3.28,0,0,0-2-.36,4.33,4.33,0,0,0-1.94.5l-.94,22.18c-.07,2.52-1.3,5.11-3.82,5.26-3.17.14-2.59-4.68-2.38-7.85.43-4.39,1.58-11.16,1.66-11.38a6.67,6.67,0,0,0,1.66-1.8c.14-1.15-1.08-1.51-1.87-2.23-1.37-1.37-2.45-3.24-4.1-2.88s-4.61.65-4.75.72a66.88,66.88,0,0,1,.14,8.5c-.07,5-.79,7.85-1.3,12.75a14.64,14.64,0,0,0-.06,1.8c-1.83,2.48-3.66,4.19-4.68,3.5a3.57,3.57,0,0,1-1.47-1.61,28.35,28.35,0,0,0,2.4-11c.07-6.26-1.51-14.26-7.63-14.33-3,0-5,1.73-6.55,4.39v-3.67c0-2.45,2.16-4.1.94-6.12a4.72,4.72,0,0,0-5.47-2,2.81,2.81,0,0,0-2.16,0,3,3,0,0,0-1.66,3.82c0,2.66.07,3.82-.14,6.91-.29,2.92-.56,10.79-.66,18.9-.07.06-.14.1-.22.18-2.23,3.53-4.82,6.48-6.12,5.62a3.75,3.75,0,0,1-1.14-1A26.82,26.82,0,0,0,331.11,236c.07-6.26-1.51-14.26-7.63-14.33-3,0-5,1.73-6.55,4.39v-3.67c0-2.45,2.16-4.1.94-6.12a4.72,4.72,0,0,0-5.47-2,2.81,2.81,0,0,0-2.16,0,3,3,0,0,0-1.66,3.82c0,2.66.07,3.82-.14,6.91-.25,2.56-.49,8.9-.61,15.87a2.94,2.94,0,0,0-.32.26c-2.23,3.53-4.83,6.48-6.12,5.62-1.66-1-2.3-2.66-1.66-6.48l1.51-8.79c.29-1.58,1.22-4.46.94-6.12-.36-2.22-6.63-2.45-8.32-3l-1.07,4.82-1.27,12.24c-.5,4-2.23,9.94-4.61,9.22-2.66-.79-1.15-7.85-.14-12.67,2.67-13.46,4.59-10,5.78-9.2l1-4.67c-1.25-1.28-2.25-2.48-4.07-2.48-8.21-.14-12.39,10.73-13.1,23.62,0,.64,0,1.27,0,1.9-1.2.17-2.18,1.19-3.63,1.19-2.74,0-2.52-1.94-2.52-3.6V231.46c.22.36,4.61.86,5.62-.22,1.44-1.51-1.51-3.24-1.15-5.26.14-.65.58-1,.58-1.66,0-1.58-4.46-1.37-4.54-1.22-.07-.22,2.23-17.43,1.66-21.46-.14-1.3,1.94-.72,2.16-2.52.14-1.44-.65-2.52-2.52-2.74s-3.1,1.87-5.26,1.8c-1.08,0-1.73-.86-2.74-.5a2.32,2.32,0,0,0-1.66,1.94,2.78,2.78,0,0,0,1.08,2.74c-.5,3.67-.79,5.9-1.08,9.65-.29,4.25-.5,6.77-.5,11.09l-10.73,1.8.58-19.8a3.17,3.17,0,0,0,1.44-2.23c.07-2.09-3.31-4.25-6.19-4.18s-5.69,2.38-5.69,4.54a4,4,0,0,0,1.3,2.81v19.73c-1.51-.07-3.1.36-3.6,1.8-.58,1.73.29,6,2.88,6.19.07.29,0,13.47-1.08,15.48a16.54,16.54,0,0,1-2.52,3.38c.86.72.65,2.23,1.94,2.45,1,.07.58,1.44.94,2.38.79,1.51,4.32.22,6-.94a8.9,8.9,0,0,0,3.31-7.13V233.77l10.73-.86V244.5c0,5,3,10.95,7.27,10.95,3.47,0,6.75-2.78,8.51-5.46.91,3.76,3,6.65,7,7.11s7.06-6,8.14-7.06c1.15,1.22,2.88,3.24,5.26,3.53,3.24.29,7.63-2.3,10.23-6l.25-.28c0,8.89.16,17.27.83,18.86,1.22,3,4.25,6.12,6.77,4.39,2.74-2,.5-2.16.5-3.46V248.65h0l.21-9.92c0-2.3,2.38-9.65,4.32-8.71,1.73.79,1.73,5.4,1.44,8.14-.65,6.77-1.15,10.94-3.24,11.16a6.4,6.4,0,0,1-2.29-.42v5.35a7.58,7.58,0,0,0,3,.25,9.88,9.88,0,0,0,1.57-.25,7.22,7.22,0,0,0,4,2.26c3.24.29,7.63-2.3,10.22-6l.18-.21c0,7.7.24,14.43.84,15.84,1.22,3,4.25,6.12,6.77,4.39,2.74-2,.5-2.16.5-3.46v-13h0v-5.4h0l.22-10c0-2.3,2.38-9.65,4.32-8.71,1.73.79,1.73,5.4,1.44,8.14-.65,6.77-1.15,10.94-3.24,11.16a6.4,6.4,0,0,1-2.29-.41v5.35a7.58,7.58,0,0,0,3,.25,9.61,9.61,0,0,0,3.23-.82,6.64,6.64,0,0,0,3.55,1.81c3.11.28,7.27-2.1,9.89-5.53a7.6,7.6,0,0,0,6.44,4.48c3.6.22,8-4.25,8.21-4.75v8c0,3-.36,6.48-3.31,6.91a4.55,4.55,0,0,1-4.9-2.66,2.44,2.44,0,0,0-.86-3c-.72-.43-2.88,2-3,3.82-.14,4,7.06,8.35,8.71,8a6,6,0,0,0,3.82-2.38c4.39-4.18,7.42-4.46,7.49-13.83,0-4.54-.58-7.34-.58-12,.07-7.56.36-16.35,1.8-19.44C388.28,221.38,384.82,218.29,383.67,218.29Z" transform="translate(-238.23 -196.38)"/></svg>