<?xml version="1.0" encoding="utf-8"?>
<!-- Generator: Adobe Illustrator 24.0.1, SVG Export Plug-In . SVG Version: 6.00 Build 0)  -->
<svg version="1.1" id="Layer_1" xmlns="http://www.w3.org/2000/svg" xmlns:xlink="http://www.w3.org/1999/xlink" x="0px" y="0px"
	 width="48.548px" height="50.82px">
<path fill="#010101" d="M47.255,3.141c-0.785-0.721-1.775-1.077-2.761-1.077c-0.86,0-1.717,0.27-2.433,0.803
	c-0.293-0.174-0.594-0.333-0.896-0.493c-1.807-0.703-5.549-2.103-7.921-2.284c0,0-1.309-0.057-1.39-0.058
	c-7.572,0.043-14.173,4.182-17.701,10.313c0.045-0.08,0.069-0.123,0.07-0.125c0,0-0.148,0.239-0.37,0.661
	C11.845,14.469,2.218,31.661,2.218,31.661c-1.447,2.64-2.205,5.601-2.205,8.612v8.512c0,1.105,0.896,2,2,2c0.001,0,0.001,0,0.002,0
	l28.612-0.025c0.347,0.018,0.697,0.026,1.049,0.026c0.015,0,0.029-0.001,0.043-0.001c0.044,0.002,0.087,0.003,0.13,0.003
	c1.355,0,2.443-1.076,2.443-2.449v-7.357h0.001v-0.104v-2.585c0-1.409-1.142-2.551-2.551-2.551c-0.007-0.002-0.01-0.002-0.012-0.002
	c-0.005,0-0.01,0.002-0.053,0.002c-8.647,0-15.619-7.169-15.296-15.887c0.016-0.442,0.058-0.879,0.112-1.311
	c0.021-0.163,0.048-0.324,0.074-0.485c0.041-0.259,0.088-0.516,0.142-0.771c0.043-0.199,0.087-0.398,0.137-0.594
	c0.053-0.207,0.114-0.411,0.175-0.615c0.063-0.211,0.122-0.423,0.194-0.63C19.227,9.67,24.626,5.419,30.997,5.143
	c0.228-0.01,0.454-0.015,0.68-0.015c3.538,0,6.791,1.205,9.383,3.22c0.194,0.303,0.428,0.586,0.709,0.838
	c0.779,0.698,1.753,1.042,2.722,1.042c1.169,0,2.333-0.499,3.146-1.479C49.005,7.101,48.833,4.591,47.255,3.141z M32.292,48.34
	c0,0.26-0.185,0.449-0.47,0.449c-0.001,0-0.001,0-0.002,0l-0.06-0.004l-0.084,0.003c-0.318,0-0.634-0.008-0.948-0.024l-0.051-0.003
	h-0.051L2.013,48.785v-8.512c0-2.667,0.677-5.312,1.95-7.635l7.434-13.276c-0.029,0.441-0.046,0.884-0.046,1.332
	c0,11.25,9.12,20.37,20.37,20.37c0.193,0,0.381-0.016,0.572-0.023L32.292,48.34L32.292,48.34z M15.886,11.344
	c3.614-5.937,9.386-9.262,15.947-9.311c0.198,0.007,1.1,0.046,1.289,0.055c1.03,0.084,3.111,0.522,7.212,2.111
	c0.238,0.126,0.476,0.253,0.707,0.39l1.145,0.679l1.068-0.794c0.359-0.267,0.788-0.408,1.24-0.408c0.522,0,1.022,0.195,1.408,0.549
	c0.79,0.725,0.879,2.035,0.196,2.859c-0.398,0.48-0.984,0.756-1.606,0.756c-0.512,0-1.005-0.189-1.388-0.531
	c-0.133-0.121-0.255-0.265-0.361-0.431L42.558,6.98l-0.27-0.21c-3.064-2.382-6.733-3.641-10.61-3.641
	c-0.254,0-0.51,0.005-0.766,0.017c-6.806,0.296-12.63,4.609-15.171,10.595l-0.763,2.177c-0.031,0.112-0.054,0.226-0.083,0.339
	c-0.037,0.147-0.074,0.293-0.108,0.442c-0.097,0.432-0.177,0.866-0.24,1.303c-0.015,0.105-0.026,0.211-0.039,0.317
	c-0.061,0.487-0.107,0.975-0.125,1.465c-0.088,2.375,0.297,4.687,1.116,6.832c0.409,1.073,0.927,2.103,1.548,3.079
	c0.31,0.488,0.647,0.962,1.008,1.422s0.748,0.903,1.16,1.33c1.062,1.102,2.252,2.027,3.523,2.798
	c0.191,0.116,0.374,0.246,0.569,0.354c1.461,0.81,3.033,1.396,4.674,1.75c0.035,0.008,2.004,0.324,2.978,0.363
	c0.19,0.008,0.377,0.031,0.569,0.033l0.003,0.001h0.001h0.213c0.304,0,0.551,0.247,0.551,0.551v0.758
	c-0.195,0.008-0.385,0.012-0.573,0.012c-10.129,0-18.37-8.241-18.37-18.37C13.351,18.758,13.201,15.754,15.886,11.344z"/>
<path opacity="0.6" fill="#C56F55" d="M47.825,3.831c-0.838-1.164-2.094-1.734-3.343-1.734c-0.516,0-1.031,0.097-1.515,0.29
	c-0.642,0.256-1.339,0.323-1.983,0.071c-1.928-0.753-5.942-2.197-7.752-2.336c0,0-1.309-0.057-1.39-0.058
	C24.269,0.108,17.668,4.247,14.14,10.378c0.045-0.08,0.069-0.123,0.07-0.125c0,0-0.148,0.239-0.37,0.661
	C11.832,14.501,2.205,31.693,2.205,31.693C0.758,34.333,0,37.294,0,40.305v8.512c0,1.105,0.895,2,2,2h0.002l28.612-0.025
	c0.347,0.018,0.697,0.026,1.049,0.026c0.015,0,0.029-0.001,0.043-0.001c0.044,0.002,0.087,0.003,0.13,0.003
	c1.355,0,2.443-1.076,2.443-2.449v-7.357c0,0,0.001,0,0.001,0v-0.104v-2.104c0-1.424,0.091-3.139-2.616-3.032
	c-8.326,0.328-16.005-7.414-15.232-16.887c0.564-6.912,7.007-13.49,14.552-13.713c0.228-0.007,0.454-0.015,0.68-0.015
	c3.538,0,7.82,1.279,10.092,4.058c0.473,0.578,1.753,1.042,2.722,1.042c1.432,0,2.857-0.749,3.637-2.213
	C48.822,6.722,48.702,5.05,47.825,3.831z M3.95,32.67l4.838-8.64c1.881-3.405,2.777-0.286,3.068,1.19
	c0.67,3.393,2.059,3.725-2.791,9.355c-1.847,2.144-3.842,4.279-4.63,5.149C1.352,43.11,1.473,37.039,3.95,32.67z M9.204,46.817
	c0,0-3.277-0.001-3.314-0.001c-5.384,0.001,1.139-6.867,6.01-12.41c1.402-1.596,3.216-1.482,5.397,0.671
	c2.386,2.355,1.54,4.917-0.531,6.988C16.766,42.065,13.11,46.817,9.204,46.817z M32.109,44.842
	c-0.424,1.224-1.667,1.976-2.962,1.976H18.905c-3.681,0,0.159-9.083,6.688-6.692c1.55,0.568,2.829,0.787,4.361,0.862
	C31.745,41.075,32.746,42.999,32.109,44.842z M46.085,7.505c-0.398,0.48-0.984,0.756-1.606,0.756c-0.512,0-1.032-0.161-1.388-0.531
	c-3.368-3.504-7.549-4.569-11.426-4.569c-0.254,0-0.51,0.005-0.766,0.017c-6.806,0.296-12.63,4.609-15.171,10.595
	c0,0-1.311,2.775-1.358,6.041c-0.112,7.853,4.882,17.175,16.972,17.958c0.513,0.033,0.755,0.287,0.747,0.702
	s-0.382,0.622-0.913,0.611c-8.528-0.182-17.863-7.056-17.838-18.358c0.004-1.937-0.15-4.939,2.535-9.351
	c3.614-5.937,9.386-9.262,15.947-9.311c0.198,0.007,1.1,0.046,1.289,0.055c0.924,0.075,5.113,0.727,8.094,2.518
	c0.623,0.375,1.406,0.337,1.99-0.096l0.049-0.036c0.359-0.267,0.788-0.408,1.24-0.408c0.522,0,1.022,0.195,1.408,0.549
	C46.679,5.372,46.769,6.681,46.085,7.505z"/>
</svg>
