<?xml version="1.0" encoding="utf-8"?>
<!-- Generator: Adobe Illustrator 24.0.1, SVG Export Plug-In . SVG Version: 6.00 Build 0)  -->
<svg version="1.1" id="Layer_1" xmlns="http://www.w3.org/2000/svg" xmlns:xlink="http://www.w3.org/1999/xlink" x="0px" y="0px"
	 viewBox="0 0 174.4 174.4" style="enable-background:new 0 0 174.4 174.4;" xml:space="preserve">
<style type="text/css">
	.st0{fill:#DDDDDD;}
</style>
<polygon class="st0" points="78.6,180.6 87.2,174.4 78.6,168.2 86.1,160.8 76.6,156 82.9,147.5 72.8,144.3 77.7,134.8 67.2,133.2 
	70.6,123.1 59.9,123.2 61.7,112.7 51.2,114.5 51.3,103.9 41.2,107.2 39.6,96.7 30.2,101.6 27,91.5 18.4,97.8 13.6,88.3 6.2,95.9 
	0,87.2 -6.2,95.9 -13.6,88.3 -18.4,97.8 -26.9,91.5 -30.1,101.6 -39.6,96.7 -41.2,107.2 -51.3,103.9 -51.2,114.5 -61.7,112.7 
	-59.9,123.2 -70.5,123.1 -67.2,133.2 -77.7,134.8 -72.8,144.3 -82.9,147.5 -76.6,156 -86.1,160.8 -78.5,168.2 -87.2,174.4 
	-78.5,180.6 -86.1,188 -76.6,192.8 -82.9,201.4 -72.8,204.6 -77.7,214 -67.2,215.6 -70.5,225.7 -59.9,225.6 -61.7,236.1 
	-51.2,234.3 -51.3,245 -41.2,241.6 -39.6,252.1 -30.1,247.2 -26.9,257.3 -18.4,251 -13.6,260.5 -6.2,253 0,261.6 6.2,253 
	13.6,260.5 18.4,251 27,257.3 30.2,247.2 39.6,252.1 41.2,241.6 51.3,245 51.2,234.3 61.7,236.1 59.9,225.6 70.6,225.7 67.2,215.6 
	77.7,214 72.8,204.6 82.9,201.4 76.6,192.8 86.1,188 "/>
</svg>
