<?xml version="1.0" encoding="utf-8"?>
<!-- Generator: Adobe Illustrator 24.0.1, SVG Export Plug-In . SVG Version: 6.00 Build 0)  -->
<svg version="1.0" id="Layer_1" xmlns="http://www.w3.org/2000/svg" xmlns:xlink="http://www.w3.org/1999/xlink" x="0px" y="0px"
	 viewBox="0 0 348.5 348.5" style="enable-background:new 0 0 348.5 348.5;" xml:space="preserve">
<style type="text/css">
	.st0{fill:#DDDDDD;}
</style>
<polygon class="st0" points="339.7,180.7 348.7,174.2 339.7,167.7 348.2,160.5 338.6,154.8 346.6,147 336.6,142 343.9,133.5 
	333.6,129.4 340.2,120.4 329.6,117 335.5,107.5 324.6,105 329.7,95.1 318.7,93.5 323.1,83.2 311.9,82.4 315.5,71.8 304.3,71.9 
	307,61.1 295.9,62 297.7,51 286.7,52.9 287.6,41.7 276.8,44.4 276.9,33.3 266.3,36.8 265.5,25.7 255.2,30 253.6,19 243.7,24.1 
	241.2,13.3 231.7,19.2 228.3,8.5 219.3,15.2 215.1,4.8 206.7,12.1 201.7,2.1 193.9,10.1 188.1,0.5 181,9.1 174.5,0 168,9.1 
	160.8,0.5 155,10.1 147.2,2.2 142.2,12.1 133.8,4.8 129.6,15.2 120.6,8.5 117.3,19.2 107.8,13.3 105.3,24.2 95.4,19 93.7,30.1 
	83.4,25.7 82.6,36.8 72.1,33.3 72.1,44.5 61.3,41.8 62.3,52.9 51.3,51.1 53.1,62.1 42,61.1 44.7,71.9 33.5,71.9 37.1,82.4 
	25.9,83.2 30.3,93.5 19.2,95.2 24.4,105.1 13.5,107.6 19.4,117.1 8.8,120.4 15.4,129.4 5.1,133.6 12.4,142 2.4,147 10.4,154.9 
	0.8,160.6 9.3,167.8 0.3,174.3 9.3,180.8 0.8,188 10.4,193.7 2.4,201.5 12.4,206.5 5.1,215 15.4,219.1 8.8,228.1 19.4,231.5 
	13.5,241 24.4,243.5 19.3,253.4 30.3,255 25.9,265.3 37.1,266.1 33.5,276.7 44.7,276.6 42,287.4 53.1,286.5 51.3,297.5 62.3,295.6 
	61.4,306.8 72.2,304.1 72.1,315.2 82.7,311.7 83.5,322.8 93.8,318.5 95.4,329.5 105.3,324.4 107.8,335.2 117.3,329.3 120.7,340 
	129.7,333.3 133.9,343.7 142.3,336.4 147.3,346.4 155.1,338.4 160.9,348 168,339.4 174.5,348.5 181,339.4 188.2,348 194,338.4 
	201.8,346.3 206.8,336.4 215.2,343.7 219.4,333.3 228.4,340 231.7,329.3 241.2,335.2 243.7,324.3 253.6,329.5 255.3,318.4 
	265.6,322.8 266.4,311.7 276.9,315.2 276.9,304 287.7,306.7 286.7,295.6 297.7,297.4 295.9,286.4 307,287.4 304.3,276.6 
	315.5,276.6 311.9,266.1 323.1,265.3 318.7,255 329.8,253.3 324.6,243.4 335.5,240.9 329.6,231.4 340.2,228.1 333.6,219.1 
	343.9,214.9 336.6,206.5 346.6,201.5 338.6,193.6 348.2,187.9 "/>
</svg>
