<?xml version="1.0" encoding="utf-8"?>
<!-- Generator: Adobe Illustrator 24.0.1, SVG Export Plug-In . SVG Version: 6.00 Build 0)  -->
<svg version="1.0" id="Layer_1" xmlns="http://www.w3.org/2000/svg" xmlns:xlink="http://www.w3.org/1999/xlink" x="0px" y="0px"
	 viewBox="0 0 39.956 21.03" style="enable-background:new 0 0 39.956 21.03;" xml:space="preserve">
<g>
	<path d="M35.043,0c0,0-0.473,0.992-0.563,1.209s-0.083,0.45,0,0.651c0.083,0.201,0.243,0.37,0.46,0.46
		c0.188,0.078,0.386,0.08,0.563,0.023c0.178-0.057,0.337-0.174,0.448-0.336c0.677,0.35,1.172,0.932,1.424,1.605
		c0.252,0.673,0.26,1.438-0.037,2.155s-0.844,1.252-1.498,1.55c-0.654,0.298-1.416,0.359-2.142,0.128
		c0.035-0.193,0.006-0.388-0.08-0.554c-0.085-0.166-0.226-0.304-0.415-0.382c-0.217-0.09-0.45-0.083-0.651,0
		c-0.201,0.083-0.37,0.243-0.46,0.46c-0.09,0.217-0.083,0.45,0,0.651c0.083,0.201-1.033,7.733-12.094,7.735
		C8.939,15.355,7.823,7.823,7.906,7.622c0.083-0.201,0.09-0.434,0-0.651c-0.09-0.217-0.259-0.377-0.46-0.46
		c-0.201-0.083-0.434-0.09-0.651,0C6.607,6.589,6.466,6.726,6.381,6.893c-0.085,0.166-0.115,0.361-0.08,0.554
		c-0.726,0.231-1.488,0.17-2.142-0.128c-0.654-0.298-1.201-0.833-1.498-1.55S2.372,4.286,2.624,3.613
		C2.876,2.94,3.371,2.358,4.048,2.008c0.112,0.161,0.27,0.278,0.448,0.336C4.674,2.401,4.871,2.398,5.06,2.32
		c0.217-0.09,0.377-0.259,0.46-0.46c0.083-0.201,0.09-0.434,0-0.651S4.957,0,4.957,0C1.428,0-1.716,2.573,1.472,8.195
		c2.474,4.364,13.686,10.737,12.837,12.836h5.688h0.008h5.688c-0.849-2.099,10.362-8.472,12.837-12.836
		C41.716,2.573,38.572,0,35.043,0z"/>
</g>
</svg>
